<svg width="1000" height="1000" viewBox="0 0 1000 1000" fill="none" xmlns="http://www.w3.org/2000/svg">
<path d="M545.388 702.969C496.427 700.779 451.286 680.797 414.346 648.275C366.579 606.24 332.584 543.226 321.956 470.699C311.368 487.896 296.958 502.544 280 513.451V286.556C300.699 299.891 317.498 318.68 328.365 340.931C333.54 267.529 359.613 234.33 414.386 220V455.016C423.382 554.651 472.463 642.742 545.428 702.929L545.388 702.969Z" fill="#F316B0"/>
<path d="M474.493 511.74C474.493 603.891 571.7 652.375 635.708 670.566L474.493 511.74Z" fill="#F316B0"/>
<path d="M509.006 624.033C529.148 670.567 600.003 754.598 725.353 788.911C649.163 752.607 580.259 686.569 509.006 624.033Z" fill="#F316B0"/>
</svg>
