<svg width="1000" height="1000" viewBox="0 0 1000 1000" fill="none" xmlns="http://www.w3.org/2000/svg">
<path d="M180 360C220.257 427.853 156.171 476.941 232.854 542.91C207.141 429.736 288.694 415.061 180 360Z" fill="#F316B0"/>
<path d="M465.566 483.239C410.764 499.082 396.35 493.043 405.31 474.343C357.651 506.679 306.356 496.809 253.957 474.343C297.071 517.457 241.62 561.286 262.852 635.956C267.137 607.971 271.488 607.322 275.838 644.852C311.485 564.987 338.756 547.196 353.236 624.334C367.91 574.272 382 525.054 427.906 568.168C542.964 683.226 699.642 565.181 819.634 479.148C664.644 562.195 545.561 684.33 465.566 483.239Z" fill="#F316B0"/>
<path d="M710.031 524.406C746.392 511.549 778.987 484.863 809.699 451.423C749.508 455.709 700.031 466.682 691.006 503.108C732.237 484.538 747.625 485.057 710.031 524.406Z" fill="#F316B0"/>
</svg>
