<svg width="1000" height="1000" viewBox="0 0 1000 1000" fill="none" xmlns="http://www.w3.org/2000/svg">
<path d="M524.787 543.437C446.727 484.962 433.313 424.895 417.589 281.911L417.39 280L415.957 281.274C392.591 301.933 405.13 498.536 405.647 506.816C405.647 596.34 386.302 654.099 346.495 683.396C310.909 709.549 263.619 711.698 210 711.698V712.693V713.689H477.697C504.048 713.689 526.141 694.98 531.355 670.18C535.256 696.293 552.771 713.689 576.655 713.689H577.65V470.194H576.655C544.571 470.194 526.698 495.511 524.787 543.477V543.437Z" fill="#F316B0"/>
<path d="M776.283 714.803C728.356 709.788 601.016 696.413 597.513 639.092L595.523 639.171V694.422C595.523 705.21 603.962 714.007 614.749 714.525L787.707 718.067L787.826 716.077C784.722 715.719 780.821 715.281 776.243 714.803H776.283Z" fill="#F316B0"/>
</svg>
