<svg width="1000" height="1000" viewBox="0 0 1000 1000" fill="none" xmlns="http://www.w3.org/2000/svg">
<path d="M226.931 757.706H181.49C179.26 757.706 177.503 755.863 177.545 753.677L185.219 466.449C185.262 464.306 187.02 462.634 189.163 462.634H219.301C221.444 462.634 223.159 464.349 223.245 466.449L230.918 753.677C230.961 755.906 229.204 757.706 226.974 757.706H226.931Z" fill="#F316B0"/>
<path d="M192.765 711.922H153.925C151.61 711.922 149.767 709.907 150.024 707.592L168.244 533.326C168.458 531.312 170.13 529.811 172.145 529.811H188.092C190.236 529.811 191.951 531.526 192.036 533.627L196.666 707.892C196.709 710.121 194.951 711.922 192.722 711.922H192.765Z" fill="#F316B0"/>
<path d="M382.335 250.386L379.162 250C369.302 303.287 361.157 350.572 353.955 392.285C339.808 474.295 327.547 545.115 320.602 545.115C317.43 544.987 312.157 528.353 305.126 449.902L301.911 449.987C298.567 520.208 289.993 560.634 273.274 585.199L272.974 585.627V622.495H274.603C302.211 622.495 318.93 627.297 328.919 638.014C345.338 655.634 343.752 689.544 339.508 747.975L342.723 748.318C349.453 697.132 359.485 643.03 382.763 629.698C389.88 625.625 397.811 625.539 407.028 629.44L408.357 626.525C365.315 605.305 371.96 429.11 382.42 250.429L382.335 250.386Z" fill="#F316B0"/>
<path d="M426.92 613.75C443.399 613.75 456.757 600.391 456.757 583.913C456.757 567.434 443.399 554.075 426.92 554.075C410.441 554.075 397.083 567.434 397.083 583.913C397.083 600.391 410.441 613.75 426.92 613.75Z" fill="#F316B0"/>
<path d="M513.132 583.955C529.184 583.955 542.197 575.836 542.197 565.821C542.197 555.806 529.184 547.688 513.132 547.688C497.079 547.688 484.066 555.806 484.066 565.821C484.066 575.836 497.079 583.955 513.132 583.955Z" fill="#F316B0"/>
<path d="M596.256 565.779C608.994 565.779 619.32 548.044 619.32 526.167C619.32 504.29 608.994 486.555 596.256 486.555C583.518 486.555 573.192 504.29 573.192 526.167C573.192 548.044 583.518 565.779 596.256 565.779Z" fill="#F316B0"/>
<path d="M666.219 621.209C687.977 621.209 705.616 607.179 705.616 589.871C705.616 572.564 687.977 558.533 666.219 558.533C644.46 558.533 626.821 572.564 626.821 589.871C626.821 607.179 644.46 621.209 666.219 621.209Z" fill="#F316B0"/>
<path d="M752.729 603.547C761.134 603.547 767.948 590.515 767.948 574.438C767.948 558.362 761.134 545.33 752.729 545.33C744.324 545.33 737.51 558.362 737.51 574.438C737.51 590.515 744.324 603.547 752.729 603.547Z" fill="#F316B0"/>
<path d="M793.528 647.411C805.312 641.334 811.601 630.079 807.575 622.272C803.549 614.465 790.733 613.063 778.949 619.14C767.165 625.217 760.876 636.472 764.902 644.279C768.928 652.086 781.744 653.488 793.528 647.411Z" fill="#F316B0"/>
<path d="M821.922 536.713C833.358 536.713 842.628 523.412 842.628 507.004C842.628 490.596 833.358 477.295 821.922 477.295C810.487 477.295 801.216 490.596 801.216 507.004C801.216 523.412 810.487 536.713 821.922 536.713Z" fill="#F316B0"/>
</svg>
