<svg width="1000" height="1000" viewBox="0 0 1000 1000" fill="none" xmlns="http://www.w3.org/2000/svg">
<path d="M115.075 637.138C245.197 656.332 397.335 687.824 431.166 653.429C416.489 695.889 430.36 736.534 450.441 776.857C519.151 690.889 442.779 649.235 493.989 596.815C462.699 597.098 462.86 383.79 456.247 216.409C432.134 589.638 371.972 621.735 115.035 637.179L115.075 637.138Z" fill="#F316B0"/>
<path d="M180.438 572.661C246.084 592.016 308.262 601.411 353.746 562.499L180.438 572.661Z" fill="#F316B0"/>
<path d="M523.908 520.363L505.965 571.089L535.199 664.759C566.731 641.574 573.989 617.179 576.207 592.541L523.908 520.323V520.363Z" fill="#F316B0"/>
<path d="M603.547 621.816L583.224 699.881L606.652 748.309L634.757 659.317L603.547 621.816Z" fill="#F316B0"/>
<path d="M890 589.436C677.66 596.09 699.716 548.952 658.144 468.831C644.232 547.702 650.321 637.945 664.394 732.663C678.426 575.969 750.281 624.921 890 589.396V589.436Z" fill="#F316B0"/>
</svg>
