<svg width="1000" height="1000" viewBox="0 0 1000 1000" fill="none" xmlns="http://www.w3.org/2000/svg">
<path d="M136.627 371.396C157.229 443.275 130.648 476.524 87.0979 495.792C125.498 467.648 149.319 511.198 165.783 590.987C156.355 497.678 151.94 502.737 182.292 451.368C191.306 401.472 167.576 382.939 136.581 371.396H136.627Z" fill="#F316B0"/>
<path d="M295.284 200.046C214.852 310.232 221.152 420.326 201.332 409.473C224.325 434.997 224.555 487.698 210.207 535.158C246.307 572.729 217.289 669.717 201.332 754.749C241.617 639.871 268.611 592.642 264.794 702.691C291.743 602.483 263.139 497.678 309.218 481.168L330.787 696.344C327.843 544.447 318.416 433.479 385.374 399.31L393.008 332.03C370.888 416.785 369.876 383.031 384.132 263.463C266.312 539.572 268.244 307.013 295.284 200V200.046Z" fill="#F316B0"/>
<path d="M443.136 278.776C430.075 353.368 416.463 424.373 394.895 443.78L383.49 412.048C337.18 498.643 354.333 651.506 356.817 789.055C369.509 563.118 403.77 515.52 391.078 667.188C419.222 532.674 436.007 625.477 448.194 809.335C441.526 654.541 458.219 547.206 479.926 616.371C469.716 526.374 487.652 516.44 512.945 527.523C486.686 511.198 530.374 388.549 581.512 254.587C492.664 337.088 427.914 611.267 476.155 325.684C453.437 442.216 427.914 452.609 443.136 278.73V278.776Z" fill="#F316B0"/>
<path d="M675.419 487.745C523.752 513.958 499.102 604.783 507.334 712.44C528.764 648.517 577.833 648.793 636.697 672.017C598.62 653.162 591.538 640.745 611.266 633.893L641.296 637.342C497.171 602.576 589.1 599.357 742.929 604.415C675.603 603.128 650.632 595.218 696.711 576.133C571.211 610.348 540.951 580.134 590.848 558.014C591.078 543.344 627.224 509.497 675.327 487.791L675.419 487.745Z" fill="#F316B0"/>
<path d="M914.508 254.68C904.068 324.995 890.226 390.067 851.872 417.752C846.906 407.818 846.308 385.698 851.872 346.655L815.772 435.227C782.155 320.12 711.84 361.095 644.836 387.86C749.964 404.875 797.285 425.983 749.734 453.852C812.277 460.888 774.199 479.697 679.235 505.174C723.521 508.025 685.995 533.549 608.736 570.063C739.019 554.841 830.994 452.15 797.699 536.768C842.261 544.08 820.785 654.22 788.088 723.477C821.199 637.343 848.975 574.478 842.813 660.29C851.918 567.211 867.738 565.418 885.121 585.285C845.066 504.622 943.802 435.779 914.462 254.68H914.508Z" fill="#F316B0"/>
<path d="M184.223 468.521C188.086 517.728 184.959 546.47 172.588 548.218C195.766 555.53 174.98 644.516 163.023 715.567C195.812 530.789 229.153 444.332 184.223 468.567V468.521Z" fill="#F316B0"/>
</svg>
