<svg width="1000" height="1000" viewBox="0 0 1000 1000" fill="none" xmlns="http://www.w3.org/2000/svg">
<path d="M280 547.117C317.203 542.742 349.019 502.652 378.989 450.062C351.697 534.408 324.435 578.576 458.098 643.19C410.775 629.945 380.924 629.172 369.049 641.255C401.103 660.541 421.698 684.47 434.317 711.613C370.388 698.905 309.881 682.833 296.488 620.392L280 547.117Z" fill="#F316B0"/>
<path d="M535.42 280L558.634 392.145L588.813 404.526L535.45 421.55C531.58 457.265 538.902 501.581 567.176 562.058L511.758 481.253L433.365 524.438L462.77 450.062L400.894 360.478C472.353 381.192 521.58 362.174 535.479 280.03L535.42 280Z" fill="#F316B0"/>
<path d="M591.879 450.062L602.713 525.212L670.779 618.011L653.755 546.879L728.012 552.266L685.481 494.259L709.44 412.264L639.052 469.526L591.879 450.062Z" fill="#F316B0"/>
<path d="M488.158 531.343C521.194 549.944 552.177 571.849 582.415 594.588C589.826 600.421 597.654 605.719 604.291 612.564C611.017 619.29 616.731 627.326 623.249 634.32C636.523 647.892 651.493 659.41 666.821 670.511L665.422 672.327C650.898 660.184 636.077 648.487 619.648 638.934C611.285 634.32 602.088 630.749 593.933 625.898C585.689 621.136 578.606 614.856 571.136 609.082C549.052 591.344 527.414 572.95 506.908 553.367C500.033 546.819 493.247 540.182 486.759 533.188L488.158 531.373V531.343Z" fill="#F316B0"/>
<path d="M395.745 576.016C428.781 594.618 459.764 616.523 490.002 639.261C497.413 645.094 505.241 650.392 511.878 657.237C518.604 663.964 524.318 672 530.836 678.994C544.11 692.565 559.081 704.083 574.408 715.185L573.009 717C558.485 704.857 543.664 693.161 527.235 683.607C518.872 678.994 509.675 675.422 501.52 670.571C493.276 665.809 486.193 659.529 478.722 653.755C456.639 636.017 435.001 617.624 414.495 598.04C407.62 591.493 400.834 584.856 394.346 577.861L395.745 576.046V576.016Z" fill="#F316B0"/>
<path d="M485.063 566.076C508.753 577.028 530.063 591.344 550.956 606.612C566.492 618.041 581.612 630.094 594.082 644.976C598.278 650.005 602.296 655.214 605.719 661.226L604.291 663.012C579.141 655.184 558.248 639.142 538.397 622.475C528.575 614.231 519.051 605.66 509.825 596.671C500.658 587.594 491.7 578.308 483.604 567.861L485.033 566.076H485.063Z" fill="#F316B0"/>
<path d="M471.966 597.088C483.901 596.016 493.633 602.207 501.371 610.332C508.99 618.16 515.419 626.463 519.169 637.237L517.681 638.993C511.699 638.071 506.639 636.017 501.758 633.785C487.502 626.404 471.877 616.493 470.478 598.844L471.966 597.088Z" fill="#F316B0"/>
</svg>
