<svg width="1000" height="1000" viewBox="0 0 1000 1000" fill="none" xmlns="http://www.w3.org/2000/svg">
<path d="M606.274 386.803C644.193 344.727 591.729 271.096 515.371 335.118C525.045 369.726 511.605 434.137 446.284 499.977C451.998 650.162 363.432 594.581 234.675 451.344C249.154 494.977 245.063 533.546 230 569.193C280.84 597.373 304.475 627.631 313.241 679.446C369.081 621.722 433.947 624.19 522.578 622.372C668.023 583.868 725.876 389.075 606.274 386.932V386.803Z" fill="#F316B0"/>
<path d="M691.073 527.767C655.946 610.879 583.873 648.149 493.554 662.694C572.12 658.863 639.323 659.837 637.376 690.03C686.009 632.241 733.733 577.569 766.913 575.946C782.366 540.754 755.744 525.3 691.073 527.767Z" fill="#F316B0"/>
</svg>
