<svg width="1000" height="1000" viewBox="0 0 1000 1000" fill="none" xmlns="http://www.w3.org/2000/svg">
<path d="M618.17 605.916C408.822 563.22 555.171 416.968 751.55 256.193C470.655 323.66 269.225 861.602 267.233 289.951C233.767 361.304 207.149 494.539 201.369 614.853C198.843 667.7 156.39 709.813 103.495 711.755L77.3629 712.678C75.2743 712.775 73.6228 714.475 73.6228 716.564V737.644C73.6228 739.83 75.42 741.579 77.6543 741.53L203.894 736.965C303.128 482.881 429.757 893.368 666.937 675.034C538.9 634.719 512.622 610.676 617.976 607.713C619.044 607.713 619.239 606.11 618.17 605.916Z" fill="#F316B0"/>
<path d="M641.775 641.325C660.912 676.929 816.879 688.295 913.053 660.268C836.308 667.506 668.392 580.269 641.969 628.696C639.832 632.631 639.637 637.439 641.775 641.374V641.325Z" fill="#F316B0"/>
<path d="M717.646 737.111C757.621 750.905 857.681 732.399 919.999 690.044C827.517 717.536 768.55 685.09 715.412 719.576C708.611 723.996 709.923 734.439 717.597 737.062L717.646 737.111Z" fill="#F316B0"/>
</svg>
