<svg width="1000" height="1000" viewBox="0 0 1000 1000" fill="none" xmlns="http://www.w3.org/2000/svg">
<path d="M341.063 371.52L180 359.54C253.728 392.817 281.386 420.992 249.217 442.437C362.361 521.638 513.884 390.081 341.063 371.52Z" fill="#198F51"/>
<path d="M437.494 453.308C651.874 430.087 625.179 355.176 409.911 371.519C450.879 386.827 483.491 405.314 437.494 453.308Z" fill="#198F51"/>
<path d="M576.963 436.965C812.863 443.029 792.083 384.239 561.434 350C594.637 370.114 685.521 397.106 576.963 436.965Z" fill="#198F51"/>
<path d="M563.578 451.164C497.836 471.278 450.656 474.606 427.51 456.34C285.305 593.961 308.969 627.09 515.362 545.006C476.613 527.776 504.492 493.463 563.578 451.164Z" fill="#198F51"/>
<path d="M744.384 456.34C659.046 466.545 611.866 466.767 605.729 456.34C534.293 518.014 563.503 555.358 690.327 531.251C643.443 509.805 654.461 481.778 744.384 456.34Z" fill="#198F51"/>
<path d="M468.849 581.463C611.055 584.938 643.741 599.654 468.849 654.673C750.598 632.266 756.588 505.738 468.849 581.463Z" fill="#198F51"/>
</svg>
