<svg width="1000" height="1000" viewBox="0 0 1000 1000" fill="none" xmlns="http://www.w3.org/2000/svg">
<path d="M310 319.02L320.059 611.226L368.155 414.944L378.661 499.856L389.554 423.694L397.084 468.903L402.114 396.045L413.84 476.433L423.87 382.652V838.938L469.912 627.119L474.942 170L459.049 290.567L444.793 239.495L442.293 300.627L427.233 228.602L424.704 326.58L415.507 293.93L412.977 319.883L405.447 298.93L392.471 360.062L362.768 291.4L361.072 360.895L353.542 343.306L352.708 393.545L310 319.02Z" fill="#198F51"/>
<path d="M497.562 277.174L488.336 622.952L497.562 577.743L522.652 613.726L516.818 575.214L532.711 612.893L537.741 576.88L559.497 659.768V598.666L588.813 675.691V638.845L614.766 722.567L608.903 436.253L596.343 480.599L584.617 445.45L578.754 473.903L569.557 401.908L567.027 456.343L551.551 429.557L556.164 452.98L539.408 467.206L497.562 277.174Z" fill="#198F51"/>
<path d="M651.582 565.184L644.885 729.263L691.791 658.102L651.582 565.184Z" fill="#198F51"/>
</svg>
