<svg width="1000" height="1000" viewBox="0 0 1000 1000" fill="none" xmlns="http://www.w3.org/2000/svg">
<path d="M403.886 393.628C364.486 374.986 328.867 427.999 324.972 470.046C320.888 513.984 306.671 568.926 403.886 546.465C446.35 536.672 505.639 505.552 482.801 470.046C467.184 445.771 434.741 408.223 403.886 393.628ZM390.425 516.026C369.515 524.61 350.722 498.254 349.474 476.399C347.281 436.734 364.221 407.959 390.425 436.772C405.626 453.485 416.213 460.593 431.376 476.399C442.531 488.007 431.225 499.275 390.425 516.026Z" fill="#198F51"/>
<path d="M561.451 375.213C556.346 342.165 543.188 308.133 520.538 279.094C502.199 255.612 466.467 282.232 483.444 306.659C502.918 334.678 528.214 359.105 561.451 375.213Z" fill="#198F51"/>
<path d="M453.458 677.901C453.458 677.901 494.409 738.438 544.926 738.438C595.443 738.438 636.394 677.901 636.394 677.901C636.394 677.901 533.885 586.924 527.419 636.988C521.936 679.489 466.276 689.963 453.496 677.901H453.458Z" fill="#198F51"/>
<path d="M582.323 475.151C552.187 388.334 465.029 318.721 416.289 314.373C303.457 304.315 269.086 456.699 180 466.87C180 466.87 255.246 623.678 298.579 654.381C311.625 666.065 345.013 674.384 384.149 674.384C434.666 674.384 475.617 660.545 475.617 643.491C475.617 634.001 462.987 625.531 443.098 619.859C517.286 578.719 608.225 549.755 582.323 475.189V475.151ZM404.87 594.108C337.034 594.108 281.034 540.831 282.017 475.113C282.887 416.996 341.837 398.278 404.87 356.155C461.286 318.419 527.722 409.433 527.722 475.113C527.722 540.793 472.705 594.108 404.87 594.108Z" fill="#198F51"/>
<path d="M604.784 429.474C633.975 485.701 626.98 529.412 586.823 561.628C616.884 549.604 639.382 551.759 649.214 577.66C679.501 566.052 702.302 548.583 689.937 503.586C662.334 515.875 638.324 470.878 604.784 429.512V429.474Z" fill="#198F51"/>
<path d="M692.357 456.51C721.548 512.736 714.553 556.447 674.396 588.664C704.457 576.639 726.956 578.795 736.787 604.696C770.667 587 827.688 576.601 827.688 576.601C772.255 568.736 773.351 561.174 777.511 530.622C749.908 542.911 725.897 497.914 692.357 456.547V456.51Z" fill="#198F51"/>
</svg>
