<svg width="1000" height="1000" viewBox="0 0 1000 1000" fill="none" xmlns="http://www.w3.org/2000/svg">
<path d="M431.934 269.979C440.811 303.456 446.105 339.043 453.389 372.759C456.852 389.159 458.126 406.395 464.814 421.84C467.56 427.413 472.138 435.852 479.064 434.419C489.693 430.199 492.001 409.181 495.186 399.27L500.52 416.625C504.222 429.443 509.516 442.181 515.368 454.162C523.329 470.204 531.688 486.604 542.834 500.576C556.049 517.335 571.773 530.67 585.785 547.707C608.514 574.138 620.774 609.446 619.978 644.157L617.232 644.794C607.479 625.528 598.125 606.302 585.068 589.663C572.131 572.626 556.487 560.206 541.321 544.403C517.318 519.484 500.162 486.326 495.106 452.053C493.116 440.867 492.161 429.642 490.529 418.695L500.281 419.332C498.41 423.631 496.38 427.93 493.673 432.03C481.373 451.097 465.689 443.415 454.185 428.567C442.323 413.68 433.566 396.563 428.71 378.411C422.062 351.821 420.987 323.996 423.933 296.848C425.007 287.812 426.48 278.856 429.028 269.939H431.854L431.934 269.979Z" fill="#198F51"/>
<path d="M404.269 311.975C405.304 358.23 415.295 402.415 420.51 448.192C422.779 470.921 424.689 494.606 433.407 515.942C436.313 523.226 442.324 535.288 447.22 537.994C446.782 537.994 446.344 538.154 446.225 538.193C445.986 538.193 446.583 537.318 446.662 536.601C448.613 527.565 447.26 518.012 446.384 508.697L439.219 441.226C447.339 462.402 469.034 515.106 475.92 535.765C485.354 564.346 496.778 595.753 505.416 624.294C514.373 653.791 523.011 683.605 533.321 712.624C536.824 722.337 540.685 731.851 544.984 741.603L542.755 743.315C530.455 732.687 520.583 719.55 511.865 705.897C483.483 660.637 466.804 609.486 455.579 557.698C451.877 542.333 448.892 526.809 446.702 511.125L465.332 508.777C464.177 518.012 462.864 527.326 459.799 536.362C458.246 540.423 457.251 543.607 453.27 546.911C438.98 556.226 429.944 528.322 425.525 519.126C420.868 508.18 416.489 497.193 411.752 486.246C407.095 475.26 402.478 464.194 398.736 452.809C387.909 418.616 385.64 381.556 390.934 346.009C392.964 334.107 396.069 322.165 401.522 311.258L404.269 311.895V311.975Z" fill="#198F51"/>
<path d="M343.764 427.254C358.054 458.74 366.533 492.496 373.658 526.132C380.982 561.878 376.046 601.127 393.442 634.325C394.596 636.356 396.069 638.943 397.86 640.057C397.86 640.018 397.98 640.057 397.86 639.978C397.343 639.58 396.666 639.58 396.029 639.62C395.631 639.739 395.432 639.699 395.113 639.898C394.954 639.978 394.914 639.898 394.835 639.978C394.954 639.301 395.273 638.704 395.432 637.908C397.94 625.488 396.785 612.273 396.785 599.495L395.512 502.209C400.288 522.032 421.624 606.501 425.048 624.812C426.919 633.41 428.949 642.008 431.019 650.566C439.577 684.601 446.264 718.595 455.898 752.311C460.634 769.149 466.128 785.788 472.337 802.984L469.989 804.537C443.239 778.901 426.481 744.23 414.897 709.519C403.473 674.729 399.213 638.306 396.825 601.963L419.355 601.366C416.569 615.497 413.663 629.827 407.254 643.043C404.906 647.899 399.731 652.835 393.919 650.487C388.904 648.417 386.675 642.884 384.724 638.465C381.38 630.225 378.992 621.747 376.285 613.387C371.07 596.788 364.383 580.706 358.253 564.386C346.072 531.824 342.211 497.193 340.3 462.721C339.862 451.058 339.783 439.434 340.897 427.731L343.684 427.254H343.764Z" fill="#198F51"/>
<path d="M530.733 249.161C523.528 228.501 512.502 219.545 496.102 226.909C499.804 243.787 484.598 257.361 468.078 270.696C500.401 270.218 497.256 316.99 489.653 369.734C499.167 317.15 504.541 252.226 530.773 249.121L530.733 249.161Z" fill="#198F51"/>
<path d="M609.59 200C584.91 211.146 565.484 233.676 560.389 286.937C547.691 253.858 534.515 271.373 521.299 294.619C544.267 286.18 543.153 336.257 537.461 397.439C544.905 356.996 550.875 310.144 573.167 335.461C573.764 295.256 581.486 270.537 599.439 268.069C589.885 253.818 597.409 228.422 609.55 200H609.59Z" fill="#198F51"/>
<path d="M609.589 294.579C613.569 357.115 594.383 383.507 561.742 388.841C598.045 375.864 609.509 396.603 601.508 443.893C611.659 381.277 629.611 349.99 656.082 352.935C656.082 344.496 651.027 323.24 635.184 336.097C619.341 348.955 614.644 322.523 609.589 294.619V294.579Z" fill="#198F51"/>
</svg>
