<svg width="1000" height="1000" viewBox="0 0 1000 1000" fill="none" xmlns="http://www.w3.org/2000/svg">
<path d="M230.029 491.306C297.977 442.615 358.156 393.001 402.442 341.572C390.686 400.323 420.508 428.775 475.42 438.954C405.984 468.597 339.644 523.33 301.072 608.004C290.596 541.902 272.976 490.473 230 491.306H230.029Z" fill="#198F51"/>
<path d="M580.807 449.163C531.164 460.532 461.371 486.842 413.483 519.402C480.121 515.027 525.39 537.2 538.009 599.879C592.861 533.777 678.666 512.229 775.572 506.634C685.243 503.925 703.339 489.58 779.411 468.955C681.761 486.931 608.605 485.77 580.807 449.163Z" fill="#198F51"/>
<path d="M753.22 322.078C695.927 255.857 646.224 274.488 599.944 331.661C652.921 297.762 704.499 286.601 753.22 322.078Z" fill="#198F51"/>
<path d="M324.704 643.302C277.173 743.006 368.246 729.851 413.485 673.332C360.776 702.976 336.817 683.333 324.704 643.302Z" fill="#198F51"/>
<path d="M652.118 435.383C635.481 425.561 629.915 406.156 630.511 381.364C630.6 378.06 632.326 375.025 635.154 373.298C672.297 350.292 720.809 358.715 772.209 375.084C780.066 377.584 781.287 388.239 774.173 392.465C738.578 413.507 701.018 430.323 658.517 436.692C656.315 437.02 654.053 436.543 652.118 435.412V435.383Z" fill="#198F51"/>
<path d="M371.579 610.207C336.757 592.498 398.097 536.664 448.336 548.48C475.955 554.968 487.503 587.081 470.301 609.641C457.146 626.874 431.312 635.326 378.901 625.386C388.484 612.885 383.811 610.951 371.579 610.236V610.207Z" fill="#198F51"/>
</svg>
