<svg width="1000" height="1000" viewBox="0 0 1000 1000" fill="none" xmlns="http://www.w3.org/2000/svg">
<path d="M529.462 577.317C417.001 539.008 369.797 524.009 558.94 519.723C422.391 513.75 290.646 427.197 277.66 270C285.711 408.107 273.959 454.793 240 399.666L260.129 509.205L255.778 678.285C265.907 601.666 289.283 609.458 324.995 694.907C305.71 570.499 424.014 564.266 526.54 590.628C534.137 592.576 536.864 579.784 529.462 577.252V577.317Z" fill="#198F51"/>
<path d="M741.981 672.701C686.919 635.236 699.646 577.188 725.034 591.018C699.711 546.475 639.909 537.775 558.94 550.956C591.406 587.122 585.302 616.666 455.376 624.912C583.289 626.99 721.657 625.626 644.844 694.972C672.504 735.749 825.092 729.321 741.916 672.701H741.981Z" fill="#198F51"/>
<path d="M744.058 574.915C751.395 533.424 741.526 449.274 721.657 340.19C722.306 428.301 712.437 501.024 672.764 530.048C712.047 535.502 735.812 550.436 744.058 574.915Z" fill="#198F51"/>
</svg>
