<svg width="1000" height="1000" viewBox="0 0 1000 1000" fill="none" xmlns="http://www.w3.org/2000/svg">
<path d="M556.79 440.576C556.79 468.627 743.466 538.168 614.773 555.244C924.428 590.697 888.846 414.409 556.79 440.576Z" fill="#198F51"/>
<path d="M522.117 430.837C455.952 398.177 332.908 442.135 212.462 482.587C131.038 505.053 216.357 520.052 318.818 534.337C192.852 596.541 405.047 567.452 632.175 534.337C580.295 517.455 516.533 469.082 522.117 430.837Z" fill="#198F51"/>
<path d="M630.032 601.995C657.498 600.177 677.302 596.086 682.366 587.581C641.33 570.179 611.007 564.465 592.047 571.153C531.402 544.337 496.859 572.711 455.238 586.022L581.853 602.904C484.652 605.826 509.845 618.293 624.643 637.642C703.664 622.708 733.532 609.722 630.032 602.06V601.995Z" fill="#198F51"/>
<path d="M453.484 402.527C541.596 411.228 620.227 414.864 686.456 411.747C604.124 402.397 559.387 391.619 577.762 378.438C532.505 363.893 479.846 371.036 427.123 378.438C474.068 384.801 477.833 393.047 453.549 402.462L453.484 402.527Z" fill="#198F51"/>
</svg>
