<svg width="1000" height="1000" viewBox="0 0 1000 1000" fill="none" xmlns="http://www.w3.org/2000/svg">
<path d="M170 713.569C265.061 657.259 310.062 616.871 273.365 596.395C332.235 583.716 400.093 535.858 302.8 556.305C741.169 292.938 529.142 572.466 170 713.569Z" fill="#198F51"/>
<path d="M639.173 466.542C666.406 489.816 613.489 487.167 513.279 546.9C606.435 529.608 641.525 522.882 571.643 555.144C576.077 565.323 551.553 587.317 514.916 610.562C851.706 496.75 952.749 266.807 639.173 466.542Z" fill="#198F51"/>
<path d="M377.234 474.429C558.516 404.964 610.987 378.684 579.112 414.755C844.889 247.461 688.548 260.646 429.794 381.928C532.861 367.374 601.553 349.219 464.944 397.583C529.587 387.642 561.106 394.16 458.932 427.672L377.234 474.429Z" fill="#198F51"/>
</svg>
