<svg width="1000" height="1000" viewBox="0 0 1000 1000" fill="none" xmlns="http://www.w3.org/2000/svg">
<path d="M66.7698 505.93L127.888 515.577C138.451 517.225 140.222 531.757 130.331 535.909L91.315 552.15C226.008 532.123 357.281 523.453 484.22 529.07L420.781 552.15L479.03 559.843C485.685 560.698 485.868 570.345 479.274 571.444L363.692 591.166C456.866 577.794 607.372 599.897 761.848 624.503L569.944 565.216L615.921 556.241L552.97 540.793C547.414 539.45 547.353 531.574 552.909 530.108L604.869 516.554L463.704 486.391L152.8 462.579L176.856 475.95C182.962 479.37 181.314 488.528 174.414 489.566L66.892 505.808L66.7698 505.93Z" fill="#198F51"/>
<path d="M360.822 365.986C406.859 368 452.408 362.933 474.877 388.638C524.822 368.733 607.066 413.305 689.189 438.949C643.823 436.995 601.51 460.075 585.757 469.295L634.909 497.564C571.653 478.698 510.535 462.884 465.169 469.295L482.631 443.651C445.753 448.352 404.417 442.124 360.517 429.363L414.308 424.601L360.822 365.986Z" fill="#198F51"/>
<path d="M663.484 521.377C749.025 523.942 831.331 527.727 879.688 543.602L930 597.516C849.282 565.216 767.709 547.388 684.976 547.937L663.545 521.377H663.484Z" fill="#198F51"/>
</svg>
