<svg width="1000" height="1000" viewBox="0 0 1000 1000" fill="none" xmlns="http://www.w3.org/2000/svg">
<path d="M332.722 325.724C315.84 784.917 518.134 784.917 417.016 292.018C410.088 461.072 386.104 502.636 332.722 325.724Z" fill="#198F51"/>
<path d="M528.205 332.477C454.914 837.775 765.253 868.803 592.241 386.441C597.189 519.402 571.691 477.663 528.205 332.477Z" fill="#198F51"/>
<path d="M710.124 302.846C692.485 376.079 665.357 347.438 635.668 292.018C657.556 689.911 785.394 691.716 710.124 302.846Z" fill="#198F51"/>
<path d="M664.891 582.157C658.429 654.459 662.213 708.889 684.626 730.486C685.441 694.51 710.123 649.976 750 628.553C710.123 631.697 687.769 632.104 664.891 582.157Z" fill="#198F51"/>
<path d="M250 379.979C285.569 369.675 305.944 385.917 315.083 421.835C308.039 378.233 318.285 320.368 331.674 260C317.761 316.992 288.363 354.19 250 379.979Z" fill="#198F51"/>
<path d="M445.424 684.207C461.957 730.72 483.438 727.634 508.296 690.843C488.328 640.255 477.267 577.093 475.055 501.356C473.309 575.695 466.614 642.001 445.424 684.207Z" fill="#198F51"/>
</svg>
