<svg width="1000" height="1000" viewBox="0 0 1000 1000" fill="none" xmlns="http://www.w3.org/2000/svg">
<path d="M295.031 604.319H180L252.174 360H433.724L295.031 604.319Z" fill="#198F51"/>
<path d="M242.768 631.343H339.436L401.282 489.764H304.644L242.768 631.343Z" fill="#198F51"/>
<path d="M352.592 463.603C437.117 471.668 476.642 418.067 468.338 401.251C484.082 442.829 550.869 424.793 644.263 375.685C619.441 396.935 645.721 401.846 749.145 382.054C662.686 433.543 551.672 472.413 416.462 498.752C453.992 486.847 401.641 476.073 352.592 463.603Z" fill="#198F51"/>
<path d="M529.589 482.175C598.756 466.282 663.608 450.15 688.609 431.906C683.549 450.597 754.592 440.954 823.998 431.906C739.711 460.746 665.781 487.145 607.387 509.824C629.977 483.365 598.697 490.032 529.589 519.973C598.101 482.651 599.411 469.555 529.589 482.175Z" fill="#198F51"/>
</svg>
